<svg id="레이어_1" data-name="레이어 1" xmlns="http://www.w3.org/2000/svg" viewBox="0 0 408.73 348.7"><defs><style>.cls-1{fill:#e83922;}.cls-1,.cls-2,.cls-3,.cls-4,.cls-5,.cls-6{stroke:#000;stroke-miterlimit:10;stroke-width:0.5px;fill-rule:evenodd;}.cls-2{fill:#e83b18;}.cls-3{fill:#933232;}.cls-4{fill:#a52024;}.cls-5{fill:#af1900;}.cls-6{fill:#f30;}</style></defs><g id="레이어_1-2" data-name="레이어 1"><path class="cls-1" d="M109.2,118.64s1.3,8.84,9.6,8.64c0,0-18.06,5.46-13.92,15.12,0,0,3.92,16.66-6.24,20.88,0,0-12.22,9.44-23.76-5.52,0,0-12.44-17.9,4.08-22.56,0,0,6.68-.23,8.4.24l4.32,6.48s-13.1,1.8-7.2,8.64c0,0,7.24,10.12,12.72-1.44a39.81,39.81,0,0,0,1.2-9.84S96.37,131.85,109.2,118.64Z" transform="translate(15.58 40.04)"/><path class="cls-1" d="M116.88,113.36s-7.94.08-5.52,7.2c0,0,3.63,8.46,10.8,2.88C122.16,123.44,126.13,115.87,116.88,113.36Z" transform="translate(15.58 40.04)"/><path class="cls-2" d="M120,146l7,3.12s-.65-12.22,7.44-8.88c0,0,10.36,5,3.12,12.24,0,0-5.81,3.56-11.52,4.08a21.74,21.74,0,0,0-13.2,7.92l-5.76,6.24s8.83-1.94,10.08,7.44c0,0,2.55-10.23,3.84-12,0,0,3.15-5.78,11.76-4.08,0,0,12.79.39,16.08-7.68,0,0,6.47-12-2.64-19.44a24.31,24.31,0,0,0-13.48-6.74s-12-2.47-13.68,7.44A40,40,0,0,0,120,146Z" transform="translate(15.58 40.04)"/><path class="cls-2" d="M104.64,174.08s5.38-5.64,10.56,3.12c0,0,.71,7.3-6.48,6.24C108.72,183.44,100.88,181.38,104.64,174.08Z" transform="translate(15.58 40.04)"/><path class="cls-2" d="M84.72,173.6s6.72-3.59,9.12,1.68c0,0,1.59,4.13-2.64,7.68,0,0-7.71,2.83-8.88-2.64C82.32,180.32,81.53,175.75,84.72,173.6Z" transform="translate(15.58 40.04)"/><path class="cls-2" d="M85,185.12s7.83,2.83,11.52-6.72c0,0,.27,17.29,10.8,16.32,0,0,15.28.37,17.76,6.48,0,0,8.78,13.45-2.64,22.56a37.28,37.28,0,0,1-16.8,6s-14.38-.27-8.4-19.2l7.2-3.12s-.78,13.63,6.72,9.36c0,0,7.14-1.51,5.52-9.6,0,0-2.72-4.69-13.44-6.72,0,0-7.16-1.62-11.52-7.2Z" transform="translate(15.58 40.04)"/><path class="cls-3" d="M55.88,192.56S48,182.44,56.88,181a7.53,7.53,0,0,1,9.84,5s.56,5.1-7.2,13a21.82,21.82,0,0,0-6,12s-1.14,9.26-.72,10.32c0,0,5.18-5.72,12.24,0,0,0-4.56-9-3.84-11.76,0,0-1-4.41,3.84-7.68,0,0,8.35-6,10.56-9.84,0,0,3.92-9.51-2.64-17,0,0-3.64-7.85-18.48-5,0,0-9.47,2.16-11.52,5.76,0,0-5.16,5.41,0,12.48,0,0,5.53,5.78,6.24,5.76Z" transform="translate(15.58 40.04)"/><path class="cls-3" d="M58.32,220.88s-6.49.12-5.76,6.48c0,0,1.86,5.67,8.64,3.6,0,0,4.82-1.57,3.12-7C64.32,224,63.22,221.1,58.32,220.88Z" transform="translate(15.58 40.04)"/><path class="cls-4" d="M155.28,164.22s-16.14-1.32-16.32,9.84c0,0,.45,6.93,4.8,11.76,0,0,10.23,15.06,23.52,6.48,0,0,10.43-3.72,7.2-18,0,0-4.91-11.63,1.2-15.12,0,0,8.54-6,10.32-6,0,0-9.83.52-10.56-8.4,0,0-6.41,9-6.72,10.56,0,0-2.86,3.73-2.16,11,0,0,.32,9.62-.72,12.48,0,0-4.18,8.12-11.28,1.68,0,0-8.65-7,5.76-10.56Z" transform="translate(15.58 40.04)"/><path class="cls-4" d="M178.56,140.72s-5.17,4.57,2.16,9.84c0,0,8.11,2.32,8.4-4.56C189.12,146,187.88,136.48,178.56,140.72Z" transform="translate(15.58 40.04)"/><path class="cls-2" d="M154.8,125.84s-7.06-.31-6.48,7.68c0,0,2.72,6.16,10.08,1.92a5.26,5.26,0,0,0-3.6-9.6Z" transform="translate(15.58 40.04)"/><path class="cls-2" d="M147.12,129s3.59-7.42,12-4.08c0,0-5-4.54-7.44-9.12,0,0-3.51-3.52.48-10.08,0,0,8.34-10.33,5.28-18a22.65,22.65,0,0,0-8.16-9.6s-4.81-4.41-14.88,0c0,0-9.5,4.64-11.28,9.36a9.74,9.74,0,0,0-.24,11.78,19,19,0,0,0,11.76,5.52l5.76-3.6s-4-2.89-4.8-4.32c0,0-4.63-3.42,2.16-7.44,0,0,10-5.61,10.32,6.72a30.06,30.06,0,0,1-3.6,11.76,24.86,24.86,0,0,0-.24,12Z" transform="translate(15.58 40.04)"/><path class="cls-4" d="M52.08,131.12s-6.51,3.29-1.44,9.6c0,0,5.87,5.14,9.36-.72,0,0,1.91-3.31-1.44-6.72C58.56,133.28,56.62,130.87,52.08,131.12Z" transform="translate(15.58 40.04)"/><path class="cls-4" d="M52.8,129.44s8.83-.45,9.84,8.16c0,0,1.93-18.14,14.4-15.36,0,0,11.06,1.22,14.88-2.88,0,0,6.55-6.19,6-14.88,0,0,.41-7-9.36-12.48a24.15,24.15,0,0,0-12.24-4.08S68,87.5,66.24,95.6c0,0-.62,6.18,1.2,9.84l6.24,3.84s.15-11.58,6.24-9.12c0,0,5,.26,6.72,7.2,0,0,1.16,5.13-7,7.44,0,0-1.44.91-9.84,1.92,0,0-6,1.17-9.84,5.76Z" transform="translate(15.58 40.04)"/><path class="cls-4" d="M174,99l-7.2,1.44s-4.86,6.21-3.84,12.24c0,0-.17,7.8,13.2,8.4,0,0,11.73-.69,17.28-6.48,0,0,4.62-4.45,2.88-15.6,0,0-1.43-8.13-12.72-10.56,0,0-7.25-1.82-7.68-2.64,0,0-4.17-2.16-3.84-9.84,0,0-.09-6.49.48-7.44,0,0-5,8.1-12,4.8,0,0,3.92,8.68,4.56,9.12A22.12,22.12,0,0,0,176.4,92.48s10.33,4.7,10.08,10.32a10,10,0,0,1-4.56,6.24s-8.35,2.47-8.64-2.88A18.85,18.85,0,0,1,174,99Z" transform="translate(15.58 40.04)"/><path class="cls-4" d="M160.8,62s5.89-2.25,8.4,1a6.25,6.25,0,0,1-1,7.44s-3.72,3.26-7.92.72c0,0-3.14-1.61-1.68-5.76A8.08,8.08,0,0,1,160.8,62Z" transform="translate(15.58 40.04)"/><path class="cls-2" d="M104.4,68.48s-1.27,10.84,4.8,10.08c0,0,9.56-1.69,7.92-9.12,0,0-2-5.88-9.84-7,0,0-10.61-2.56-13.2-6,0,0-8.56-9.67-8.4-10.32,0,0,6,.75,7.68-2.16,0,0,2.74-3.51,2.64-4.8a63.32,63.32,0,0,0,1.88,9.16s1.73,7.07,7.44,7.68c0,0,14.14-.24,18,4.32,0,0,7.76,8.32,3.36,19,0,0-4.14,8-16.32,10.56,0,0-8.52,1.78-12.48-2.88,0,0-5.27-6.42-.24-15.12Z" transform="translate(15.58 40.04)"/><path class="cls-2" d="M85,34.64S92,31,93.84,37a6.16,6.16,0,0,1-4.66,7.37l-.34.07s-6.21,1.2-6.48-4.8C82.32,39.68,82,37.09,85,34.64Z" transform="translate(15.58 40.04)"/><path class="cls-2" d="M52.32,88.16s-1.41-5.12,5-6.72c0,0,6.51-.46,7,4.08,0,0,1.93,4.89-3.84,7C60.48,92.48,53.4,93.78,52.32,88.16Z" transform="translate(15.58 40.04)"/><path class="cls-2" d="M52.32,82.64s4.25-4.15,8.64-1.92l4.56,2.16s-4.61-10.33-4.08-12.72c0,0-1.72-4.18,5.52-8.64,0,0,10.18-6.11,10.08-13.44,0,0-.18-8.94-3.84-12.24,0,0-3.3-5.4-12.72-5.76,0,0-12.37.66-16.08,5a9.68,9.68,0,0,0-3.12,11.76s3.45,5.34,7.2,8.16l7.92-1.44S49.4,45,55,42.76c0,0,4.47-2.94,9.6,1,0,0,4.86,2.39-1,11.28,0,0-7.9,7.58-8.88,12A53.53,53.53,0,0,0,52.32,82.64Z" transform="translate(15.58 40.04)"/><path class="cls-2" d="M20.88,73s5.13,1.76,7.68.24c0,0,3.83-3.14,4.56-4.8,0,0-.86,10.34.48,12.72,0,0,.27,5,9.36,6.72,0,0,9.64,1.85,12.48,7,0,0,5.83,10.45-1,19.68,0,0-6.06,6-18.24,6.48,0,0-11.92.33-12.48-10.32,0,0,.87-6.5,4.08-10.32L35,99s-3.27,10.14,2.4,10.08c0,0,7.43,2.39,9.84-6,0,0,1.42-3.81-7-8.88,0,0-11.45-6-13.44-10.32C26.88,83.84,22,76.22,20.88,73Z" transform="translate(15.58 40.04)"/><path class="cls-2" d="M23.52,61.28A6.55,6.55,0,0,0,19.44,69s3.25,6.38,10.32,1.2c0,0,2.77-4.17.72-7C30.48,63.22,29.26,60.12,23.52,61.28Z" transform="translate(15.58 40.04)"/><path class="cls-2" d="M36.24,145s.71,5,3.84,6.72c0,0,1.56,1.55,6.24,1.68,0,0-8.71,3.91-10.08,6,0,0-3.9,1.67-2.4,8.88,0,0,4.3,15.28-.48,19.44,0,0-9.42,11.14-19.92,5.52,0,0-11.84-6.68-13-17.28,0,0-2.22-7.77,7.2-10.8,0,0,1.81-1,8.4-1l5,5.28s-5.78,2.2-7,3.6c0,0-4.13,1.85,1.44,7.92,0,0,5.54,4.68,9.36.72,0,0,3.75-2.88,2.88-11,0,0-1-8.08.72-12.24C28.56,158.48,34.35,146.54,36.24,145Z" transform="translate(15.58 40.04)"/><path class="cls-2" d="M38.16,145.52s-1.86-5.79,5.76-6c0,0,7,1.31,5.76,8.16,0,0-1.71,5.06-7.68,2.88C42,150.56,38.33,148.22,38.16,145.52Z" transform="translate(15.58 40.04)"/></g><g id="레이어_1_사본" data-name="레이어 1 사본"><path class="cls-1" d="M109.2,118.64s1.3,8.84,9.6,8.64c0,0-18.06,5.46-13.92,15.12,0,0,3.92,16.66-6.24,20.88,0,0-12.22,9.44-23.76-5.52,0,0-12.44-17.9,4.08-22.56,0,0,6.68-.23,8.4.24l4.32,6.48s-13.1,1.8-7.2,8.64c0,0,7.24,10.12,12.72-1.44a39.81,39.81,0,0,0,1.2-9.84S96.37,131.85,109.2,118.64Z" transform="translate(15.58 40.04)"/><path class="cls-1" d="M116.88,113.36s-7.94.08-5.52,7.2c0,0,3.63,8.46,10.8,2.88C122.16,123.44,126.13,115.87,116.88,113.36Z" transform="translate(15.58 40.04)"/><path class="cls-1" d="M359.2-11.36s1.3,8.84,9.6,8.64c0,0-18.06,5.46-13.92,15.12,0,0,3.92,16.66-6.24,20.88,0,0-12.22,9.44-23.76-5.52,0,0-12.44-17.9,4.08-22.56,0,0,6.68-.23,8.4.24l4.32,6.48s-13.1,1.8-7.2,8.64c0,0,7.24,10.12,12.72-1.44a39.81,39.81,0,0,0,1.2-9.84S346.37,1.85,359.2-11.36Z" transform="translate(15.58 40.04)"/><path class="cls-1" d="M366.88-16.64s-7.94.08-5.52,7.2c0,0,3.63,8.46,10.8,2.88C372.16-6.56,376.13-14.13,366.88-16.64Z" transform="translate(15.58 40.04)"/><path class="cls-2" d="M120,146l7,3.12s-.65-12.22,7.44-8.88c0,0,10.36,5,3.12,12.24,0,0-5.81,3.56-11.52,4.08a21.74,21.74,0,0,0-13.2,7.92l-5.76,6.24s8.83-1.94,10.08,7.44c0,0,2.55-10.23,3.84-12,0,0,3.15-5.78,11.76-4.08,0,0,12.79.39,16.08-7.68,0,0,6.47-12-2.64-19.44a24.31,24.31,0,0,0-13.48-6.74s-12-2.47-13.68,7.44A40,40,0,0,0,120,146Z" transform="translate(15.58 40.04)"/><path class="cls-2" d="M104.64,174.08s5.38-5.64,10.56,3.12c0,0,.71,7.3-6.48,6.24C108.72,183.44,100.88,181.38,104.64,174.08Z" transform="translate(15.58 40.04)"/><path class="cls-2" d="M84.72,173.6s6.72-3.59,9.12,1.68c0,0,1.59,4.13-2.64,7.68,0,0-7.71,2.83-8.88-2.64C82.32,180.32,81.53,175.75,84.72,173.6Z" transform="translate(15.58 40.04)"/><path class="cls-2" d="M85,185.12s7.83,2.83,11.52-6.72c0,0,.27,17.29,10.8,16.32,0,0,15.28.37,17.76,6.48,0,0,8.78,13.45-2.64,22.56a37.28,37.28,0,0,1-16.8,6s-14.38-.27-8.4-19.2l7.2-3.12s-.78,13.63,6.72,9.36c0,0,7.14-1.51,5.52-9.6,0,0-2.72-4.69-13.44-6.72,0,0-7.16-1.62-11.52-7.2Z" transform="translate(15.58 40.04)"/><path class="cls-3" d="M55.88,192.56S48,182.44,56.88,181a7.53,7.53,0,0,1,9.84,5s.56,5.1-7.2,13a21.82,21.82,0,0,0-6,12s-1.14,9.26-.72,10.32c0,0,5.18-5.72,12.24,0,0,0-4.56-9-3.84-11.76,0,0-1-4.41,3.84-7.68,0,0,8.35-6,10.56-9.84,0,0,3.92-9.51-2.64-17,0,0-3.64-7.85-18.48-5,0,0-9.47,2.16-11.52,5.76,0,0-5.16,5.41,0,12.48,0,0,5.53,5.78,6.24,5.76Z" transform="translate(15.58 40.04)"/><path class="cls-3" d="M58.32,220.88s-6.49.12-5.76,6.48c0,0,1.86,5.67,8.64,3.6,0,0,4.82-1.57,3.12-7C64.32,224,63.22,221.1,58.32,220.88Z" transform="translate(15.58 40.04)"/><path class="cls-3" d="M19.88,12.56S12,2.44,20.88,1a7.53,7.53,0,0,1,9.84,5s.56,5.1-7.2,13a21.82,21.82,0,0,0-6,12s-1.14,9.26-.72,10.32c0,0,5.18-5.72,12.24,0,0,0-4.56-9-3.84-11.76,0,0-1-4.41,3.84-7.68,0,0,8.35-6,10.56-9.84,0,0,3.92-9.51-2.64-17,0,0-3.64-7.85-18.48-5C18.48-9.92,9-7.76,7-4.16c0,0-5.16,5.41,0,12.48,0,0,5.53,5.78,6.24,5.76Z" transform="translate(15.58 40.04)"/><path class="cls-3" d="M22.32,40.88s-6.49.12-5.76,6.48c0,0,1.86,5.67,8.64,3.6,0,0,4.82-1.57,3.12-7C28.32,44,27.22,41.1,22.32,40.88Z" transform="translate(15.58 40.04)"/><path class="cls-3" d="M-.12,122.56S-8,112.44.88,111a7.53,7.53,0,0,1,9.84,5s.56,5.1-7.2,13a21.82,21.82,0,0,0-6,12s-1.14,9.26-.72,10.32c0,0,5.18-5.72,12.24,0,0,0-4.56-9-3.84-11.76,0,0-1-4.41,3.84-7.68,0,0,8.35-6,10.56-9.84,0,0,3.92-9.51-2.64-17,0,0-3.64-7.85-18.48-5,0,0-9.47,2.16-11.52,5.76,0,0-5.16,5.41,0,12.48,0,0,5.53,5.78,6.24,5.76Z" transform="translate(15.58 40.04)"/><path class="cls-3" d="M2.32,150.88s-6.49.12-5.76,6.48c0,0,1.86,5.67,8.64,3.6,0,0,4.82-1.57,3.12-7C8.32,154,7.22,151.1,2.32,150.88Z" transform="translate(15.58 40.04)"/><path class="cls-4" d="M155.28,164.22s-16.14-1.32-16.32,9.84c0,0,.45,6.93,4.8,11.76,0,0,10.23,15.06,23.52,6.48,0,0,10.43-3.72,7.2-18,0,0-4.91-11.63,1.2-15.12,0,0,8.54-6,10.32-6,0,0-9.83.52-10.56-8.4,0,0-6.41,9-6.72,10.56,0,0-2.86,3.73-2.16,11,0,0,.32,9.62-.72,12.48,0,0-4.18,8.12-11.28,1.68,0,0-8.65-7,5.76-10.56Z" transform="translate(15.58 40.04)"/><path class="cls-4" d="M178.56,140.72s-5.17,4.57,2.16,9.84c0,0,8.11,2.32,8.4-4.56C189.12,146,187.88,136.48,178.56,140.72Z" transform="translate(15.58 40.04)"/><path class="cls-4" d="M15.28,224.22S-.86,222.9-1,234.06c0,0,.45,6.93,4.8,11.76,0,0,10.23,15.06,23.52,6.48,0,0,10.43-3.72,7.2-18,0,0-4.91-11.63,1.2-15.12,0,0,8.54-6,10.32-6,0,0-9.83.52-10.56-8.4,0,0-6.41,9-6.72,10.56,0,0-2.86,3.73-2.16,11,0,0,.32,9.62-.72,12.48,0,0-4.18,8.12-11.28,1.68,0,0-8.65-7,5.76-10.56Z" transform="translate(15.58 40.04)"/><path class="cls-4" d="M38.56,200.72s-5.17,4.57,2.16,9.84c0,0,8.11,2.32,8.4-4.56C49.12,206,47.88,196.48,38.56,200.72Z" transform="translate(15.58 40.04)"/><path class="cls-2" d="M154.8,125.84s-7.06-.31-6.48,7.68c0,0,2.72,6.16,10.08,1.92a5.26,5.26,0,0,0-3.6-9.6Z" transform="translate(15.58 40.04)"/><path class="cls-2" d="M147.12,129s3.59-7.42,12-4.08c0,0-5-4.54-7.44-9.12,0,0-3.51-3.52.48-10.08,0,0,8.34-10.33,5.28-18a22.65,22.65,0,0,0-8.16-9.6s-4.81-4.41-14.88,0c0,0-9.5,4.64-11.28,9.36a9.74,9.74,0,0,0-.24,11.78,19,19,0,0,0,11.76,5.52l5.76-3.6s-4-2.89-4.8-4.32c0,0-4.63-3.42,2.16-7.44,0,0,10-5.61,10.32,6.72a30.06,30.06,0,0,1-3.6,11.76,24.86,24.86,0,0,0-.24,12Z" transform="translate(15.58 40.04)"/><path class="cls-4" d="M52.08,131.12s-6.51,3.29-1.44,9.6c0,0,5.87,5.14,9.36-.72,0,0,1.91-3.31-1.44-6.72C58.56,133.28,56.62,130.87,52.08,131.12Z" transform="translate(15.58 40.04)"/><path class="cls-4" d="M52.8,129.44s8.83-.45,9.84,8.16c0,0,1.93-18.14,14.4-15.36,0,0,11.06,1.22,14.88-2.88,0,0,6.55-6.19,6-14.88,0,0,.41-7-9.36-12.48a24.15,24.15,0,0,0-12.24-4.08S68,87.5,66.24,95.6c0,0-.62,6.18,1.2,9.84l6.24,3.84s.15-11.58,6.24-9.12c0,0,5,.26,6.72,7.2,0,0,1.16,5.13-7,7.44,0,0-1.44.91-9.84,1.92,0,0-6,1.17-9.84,5.76Z" transform="translate(15.58 40.04)"/><path class="cls-4" d="M174,99l-7.2,1.44s-4.86,6.21-3.84,12.24c0,0-.17,7.8,13.2,8.4,0,0,11.73-.69,17.28-6.48,0,0,4.62-4.45,2.88-15.6,0,0-1.43-8.13-12.72-10.56,0,0-7.25-1.82-7.68-2.64,0,0-4.17-2.16-3.84-9.84,0,0-.09-6.49.48-7.44,0,0-5,8.1-12,4.8,0,0,3.92,8.68,4.56,9.12A22.12,22.12,0,0,0,176.4,92.48s10.33,4.7,10.08,10.32a10,10,0,0,1-4.56,6.24s-8.35,2.47-8.64-2.88A18.85,18.85,0,0,1,174,99Z" transform="translate(15.58 40.04)"/><path class="cls-4" d="M160.8,62s5.89-2.25,8.4,1a6.25,6.25,0,0,1-1,7.44s-3.72,3.26-7.92.72c0,0-3.14-1.61-1.68-5.76A8.08,8.08,0,0,1,160.8,62Z" transform="translate(15.58 40.04)"/><path class="cls-2" d="M104.4,68.48s-1.27,10.84,4.8,10.08c0,0,9.56-1.69,7.92-9.12,0,0-2-5.88-9.84-7,0,0-10.61-2.56-13.2-6,0,0-8.56-9.67-8.4-10.32,0,0,6,.75,7.68-2.16,0,0,2.74-3.51,2.64-4.8a63.32,63.32,0,0,0,1.88,9.16s1.73,7.07,7.44,7.68c0,0,14.14-.24,18,4.32,0,0,7.76,8.32,3.36,19,0,0-4.14,8-16.32,10.56,0,0-8.52,1.78-12.48-2.88,0,0-5.27-6.42-.24-15.12Z" transform="translate(15.58 40.04)"/><path class="cls-2" d="M85,34.64S92,31,93.84,37a6.16,6.16,0,0,1-4.66,7.37l-.34.07s-6.21,1.2-6.48-4.8C82.32,39.68,82,37.09,85,34.64Z" transform="translate(15.58 40.04)"/><path class="cls-2" d="M107.4,13.48s-1.27,10.84,4.8,10.08c0,0,9.56-1.69,7.92-9.12,0,0-2-5.88-9.84-7,0,0-10.61-2.56-13.2-6,0,0-8.56-9.67-8.4-10.32,0,0,6,.75,7.68-2.16,0,0,2.74-3.51,2.64-4.8a63.32,63.32,0,0,0,1.88,9.16S102.61.39,108.32,1c0,0,14.14-.24,18,4.32,0,0,7.76,8.32,3.36,19,0,0-4.14,8-16.32,10.56,0,0-8.52,1.78-12.48-2.88,0,0-5.27-6.42-.24-15.12Z" transform="translate(15.58 40.04)"/><path class="cls-2" d="M88-20.36S95-24,96.84-18a6.16,6.16,0,0,1-4.66,7.37l-.34.07s-6.21,1.2-6.48-4.8C85.32-15.32,85-17.91,88-20.36Z" transform="translate(15.58 40.04)"/><path class="cls-2" d="M63.94,2s-7,8.4-1.47,11.07c0,0,8.94,3.79,11.61-3.34,0,0,1.53-6-4.44-11.23,0,0-7.5-7.92-7.8-12.22,0,0-1.91-12.77-1.43-13.23,0,0,4.63,3.9,7.62,2.37,0,0,4.21-1.45,4.83-2.58a63,63,0,0,0-3.41,8.7s-2.4,6.87,2,10.5c0,0,12,7.5,12.75,13.42,0,0,2,11.21-7.53,17.77,0,0-7.83,4.45-19.44,0,0,0-8.12-3.14-8.9-9.21,0,0-.92-8.25,8-12.81Z" transform="translate(15.58 40.04)"/><path class="cls-2" d="M66.06-37s7.84.78,6.14,6.85a6.17,6.17,0,0,1-7.93,3.65L64-26.61S58.1-29,61.14-34.17C61.1-34.19,62.25-36.53,66.06-37Z" transform="translate(15.58 40.04)"/><path class="cls-2" d="M52.32,88.16s-1.41-5.12,5-6.72c0,0,6.51-.46,7,4.08,0,0,1.93,4.89-3.84,7C60.48,92.48,53.4,93.78,52.32,88.16Z" transform="translate(15.58 40.04)"/><path class="cls-2" d="M52.32,82.64s4.25-4.15,8.64-1.92l4.56,2.16s-4.61-10.33-4.08-12.72c0,0-1.72-4.18,5.52-8.64,0,0,10.18-6.11,10.08-13.44,0,0-.18-8.94-3.84-12.24,0,0-3.3-5.4-12.72-5.76,0,0-12.37.66-16.08,5a9.68,9.68,0,0,0-3.12,11.76s3.45,5.34,7.2,8.16l7.92-1.44S49.4,45,55,42.76c0,0,4.47-2.94,9.6,1,0,0,4.86,2.39-1,11.28,0,0-7.9,7.58-8.88,12A53.53,53.53,0,0,0,52.32,82.64Z" transform="translate(15.58 40.04)"/><path class="cls-2" d="M20.88,73s5.13,1.76,7.68.24c0,0,3.83-3.14,4.56-4.8,0,0-.86,10.34.48,12.72,0,0,.27,5,9.36,6.72,0,0,9.64,1.85,12.48,7,0,0,5.83,10.45-1,19.68,0,0-6.06,6-18.24,6.48,0,0-11.92.33-12.48-10.32,0,0,.87-6.5,4.08-10.32L35,99s-3.27,10.14,2.4,10.08c0,0,7.43,2.39,9.84-6,0,0,1.42-3.81-7-8.88,0,0-11.45-6-13.44-10.32C26.88,83.84,22,76.22,20.88,73Z" transform="translate(15.58 40.04)"/><path class="cls-2" d="M23.52,61.28A6.55,6.55,0,0,0,19.44,69s3.25,6.38,10.32,1.2c0,0,2.77-4.17.72-7C30.48,63.22,29.26,60.12,23.52,61.28Z" transform="translate(15.58 40.04)"/><path class="cls-2" d="M36.24,145s.71,5,3.84,6.72c0,0,1.56,1.55,6.24,1.68,0,0-8.71,3.91-10.08,6,0,0-3.9,1.67-2.4,8.88,0,0,4.3,15.28-.48,19.44,0,0-9.42,11.14-19.92,5.52,0,0-11.84-6.68-13-17.28,0,0-2.22-7.77,7.2-10.8,0,0,1.81-1,8.4-1l5,5.28s-5.78,2.2-7,3.6c0,0-4.13,1.85,1.44,7.92,0,0,5.54,4.68,9.36.72,0,0,3.75-2.88,2.88-11,0,0-1-8.08.72-12.24C28.56,158.48,34.35,146.54,36.24,145Z" transform="translate(15.58 40.04)"/><path class="cls-2" d="M38.16,145.52s-1.86-5.79,5.76-6c0,0,7,1.31,5.76,8.16,0,0-1.71,5.06-7.68,2.88C42,150.56,38.33,148.22,38.16,145.52Z" transform="translate(15.58 40.04)"/><path class="cls-1" d="M292.2,138.64s1.3,8.84,9.6,8.64c0,0-18.06,5.46-13.92,15.12,0,0,3.92,16.66-6.24,20.88,0,0-12.22,9.44-23.76-5.52,0,0-12.44-17.9,4.08-22.56,0,0,6.68-.23,8.4.24l4.32,6.48s-13.1,1.8-7.2,8.64c0,0,7.24,10.12,12.72-1.44a39.81,39.81,0,0,0,1.2-9.84S279.37,151.85,292.2,138.64Z" transform="translate(15.58 40.04)"/><path class="cls-1" d="M299.88,133.36s-7.94.08-5.52,7.2c0,0,3.63,8.46,10.8,2.88C305.16,143.44,309.13,135.87,299.88,133.36Z" transform="translate(15.58 40.04)"/><path class="cls-2" d="M303,166l7,3.12s-.65-12.22,7.44-8.88c0,0,10.36,5,3.12,12.24,0,0-5.81,3.56-11.52,4.08a21.74,21.74,0,0,0-13.2,7.92l-5.76,6.24s8.83-1.94,10.08,7.44c0,0,2.55-10.23,3.84-12,0,0,3.15-5.78,11.76-4.08,0,0,12.79.39,16.08-7.68,0,0,6.47-12-2.64-19.44a24.31,24.31,0,0,0-13.48-6.74s-12-2.47-13.68,7.44A40,40,0,0,0,303,166Z" transform="translate(15.58 40.04)"/><path class="cls-2" d="M287.64,194.08s5.38-5.64,10.56,3.12c0,0,.71,7.3-6.48,6.24C291.72,203.44,283.88,201.38,287.64,194.08Z" transform="translate(15.58 40.04)"/><path class="cls-2" d="M267.72,193.6s6.72-3.59,9.12,1.68c0,0,1.59,4.13-2.64,7.68,0,0-7.71,2.83-8.88-2.64C265.32,200.32,264.53,195.75,267.72,193.6Z" transform="translate(15.58 40.04)"/><path class="cls-2" d="M268,205.12s7.83,2.83,11.52-6.72c0,0,.27,17.29,10.8,16.32,0,0,15.28.37,17.76,6.48,0,0,8.78,13.45-2.64,22.56a37.28,37.28,0,0,1-16.8,6s-14.38-.27-8.4-19.2l7.2-3.12s-.78,13.63,6.72,9.36c0,0,7.14-1.51,5.52-9.6,0,0-2.72-4.69-13.44-6.72,0,0-7.16-1.62-11.52-7.2Z" transform="translate(15.58 40.04)"/><path class="cls-2" d="M190.78,47.55s-7.87-10.12,1-11.52a7.53,7.53,0,0,1,9.84,5s.56,5.1-7.2,13a21.82,21.82,0,0,0-6,12s-1.14,9.26-.72,10.32c0,0,5.17-5.72,12.24,0,0,0-4.56-9-3.84-11.76,0,0-1-4.42,3.84-7.68,0,0,8.35-6,10.56-9.84,0,0,3.92-9.51-2.64-17,0,0-3.65-7.85-18.48-5,0,0-9.47,2.15-11.52,5.76,0,0-5.16,5.4,0,12.48,0,0,5.53,5.78,6.24,5.76Z" transform="translate(15.58 40.04)"/><path class="cls-2" d="M193.18,75.87s-6.49.12-5.76,6.48c0,0,1.86,5.67,8.64,3.6,0,0,4.82-1.57,3.12-7C199.18,79,198.07,76.09,193.18,75.87Z" transform="translate(15.58 40.04)"/><path class="cls-3" d="M148.88,222.56s-7.87-10.12,1-11.52a7.53,7.53,0,0,1,9.84,5s.56,5.1-7.2,13a21.82,21.82,0,0,0-6,12s-1.14,9.26-.72,10.32c0,0,5.18-5.72,12.24,0,0,0-4.56-9-3.84-11.76,0,0-1-4.41,3.84-7.68,0,0,8.35-6,10.56-9.84,0,0,3.92-9.51-2.64-17,0,0-3.64-7.85-18.48-5,0,0-9.47,2.16-11.52,5.76,0,0-5.16,5.41,0,12.48,0,0,5.53,5.78,6.24,5.76Z" transform="translate(15.58 40.04)"/><path class="cls-3" d="M151.32,250.88s-6.49.12-5.76,6.48c0,0,1.86,5.67,8.64,3.6,0,0,4.82-1.57,3.12-7C157.32,254,156.22,251.1,151.32,250.88Z" transform="translate(15.58 40.04)"/><path class="cls-2" d="M208.88,172.56s-7.86-10.12,1-11.52a7.53,7.53,0,0,1,9.84,5s.56,5.1-7.2,13a21.82,21.82,0,0,0-6,12s-1.14,9.26-.72,10.32c0,0,5.18-5.72,12.24,0,0,0-4.56-9-3.84-11.76,0,0-1-4.41,3.84-7.68,0,0,8.35-6,10.56-9.84,0,0,3.92-9.51-2.64-17,0,0-3.64-7.85-18.48-5,0,0-9.47,2.16-11.52,5.76,0,0-5.16,5.41,0,12.48,0,0,5.53,5.78,6.24,5.76Z" transform="translate(15.58 40.04)"/><path class="cls-2" d="M211.32,200.88s-6.49.12-5.76,6.48c0,0,1.86,5.67,8.64,3.6,0,0,4.82-1.57,3.12-7C217.32,204,216.22,201.1,211.32,200.88Z" transform="translate(15.58 40.04)"/><path class="cls-2" d="M234.88,269.56s-7.86-10.12,1-11.52a7.53,7.53,0,0,1,9.84,5s.56,5.1-7.2,13a21.82,21.82,0,0,0-6,12s-1.14,9.26-.72,10.32c0,0,5.18-5.72,12.24,0,0,0-4.56-9-3.84-11.76,0,0-1-4.41,3.84-7.68,0,0,8.35-6,10.56-9.84,0,0,3.92-9.51-2.64-17,0,0-3.64-7.85-18.48-5,0,0-9.47,2.16-11.52,5.76,0,0-5.16,5.41,0,12.48,0,0,5.53,5.78,6.24,5.76Z" transform="translate(15.58 40.04)"/><path class="cls-2" d="M237.32,297.88s-6.49.12-5.76,6.48c0,0,1.86,5.67,8.64,3.6,0,0,4.82-1.57,3.12-7C243.32,301,242.22,298.1,237.32,297.88Z" transform="translate(15.58 40.04)"/><path class="cls-2" d="M330.88,244.56s-7.86-10.12,1-11.52a7.53,7.53,0,0,1,9.84,5s.56,5.1-7.2,13a21.82,21.82,0,0,0-6,12s-1.14,9.26-.72,10.32c0,0,5.18-5.72,12.24,0,0,0-4.56-9-3.84-11.76,0,0-1-4.41,3.84-7.68,0,0,8.35-6,10.56-9.84,0,0,3.92-9.51-2.64-17,0,0-3.64-7.85-18.48-5,0,0-9.47,2.16-11.52,5.76,0,0-5.16,5.41,0,12.48,0,0,5.53,5.78,6.24,5.76Z" transform="translate(15.58 40.04)"/><path class="cls-2" d="M333.32,272.88s-6.49.12-5.76,6.48c0,0,1.86,5.67,8.64,3.6,0,0,4.82-1.57,3.12-7C339.32,276,338.22,273.1,333.32,272.88Z" transform="translate(15.58 40.04)"/><path class="cls-4" d="M338.28,184.22s-16.14-1.32-16.32,9.84c0,0,.45,6.93,4.8,11.76,0,0,10.23,15.06,23.52,6.48,0,0,10.43-3.72,7.2-18,0,0-4.91-11.63,1.2-15.12,0,0,8.54-6,10.32-6,0,0-9.83.52-10.56-8.4,0,0-6.41,9-6.72,10.56,0,0-2.86,3.73-2.16,11,0,0,.32,9.62-.72,12.48,0,0-4.18,8.12-11.28,1.68,0,0-8.65-7,5.76-10.56Z" transform="translate(15.58 40.04)"/><path class="cls-4" d="M361.56,160.72s-5.17,4.57,2.16,9.84c0,0,8.11,2.32,8.4-4.56C372.12,166,370.88,156.48,361.56,160.72Z" transform="translate(15.58 40.04)"/><path class="cls-2" d="M337.8,145.84s-7.06-.31-6.48,7.68c0,0,2.72,6.16,10.08,1.92a5.26,5.26,0,0,0-3.6-9.6Z" transform="translate(15.58 40.04)"/><path class="cls-2" d="M330.12,149s3.59-7.42,12-4.08c0,0-5-4.54-7.44-9.12,0,0-3.51-3.52.48-10.08,0,0,8.34-10.33,5.28-18a22.65,22.65,0,0,0-8.16-9.6s-4.81-4.41-14.88,0c0,0-9.5,4.64-11.28,9.36a9.74,9.74,0,0,0-.24,11.78,19,19,0,0,0,11.76,5.52l5.76-3.6s-3.95-2.89-4.8-4.32c0,0-4.63-3.42,2.16-7.44,0,0,10-5.61,10.32,6.72a30.06,30.06,0,0,1-3.6,11.76,24.86,24.86,0,0,0-.24,12Z" transform="translate(15.58 40.04)"/><path class="cls-4" d="M235.08,151.12s-6.51,3.29-1.44,9.6c0,0,5.87,5.14,9.36-.72,0,0,1.91-3.31-1.44-6.72C241.56,153.28,239.62,150.87,235.08,151.12Z" transform="translate(15.58 40.04)"/><path class="cls-4" d="M235.8,149.44s8.83-.45,9.84,8.16c0,0,1.93-18.14,14.4-15.36,0,0,11.06,1.22,14.88-2.88,0,0,6.55-6.19,6-14.88,0,0,.41-7-9.36-12.48a24.15,24.15,0,0,0-12.24-4.08s-8.3-.42-10.08,7.68c0,0-.62,6.18,1.2,9.84l6.24,3.84s.15-11.58,6.24-9.12c0,0,5,.26,6.72,7.2,0,0,1.16,5.13-7,7.44,0,0-1.44.91-9.84,1.92,0,0-6.05,1.17-9.84,5.76Z" transform="translate(15.58 40.04)"/><path class="cls-4" d="M357,119l-7.2,1.44s-4.86,6.21-3.84,12.24c0,0-.17,7.8,13.2,8.4,0,0,11.73-.69,17.28-6.48,0,0,4.62-4.45,2.88-15.6,0,0-1.43-8.13-12.72-10.56,0,0-7.25-1.82-7.68-2.64,0,0-4.17-2.16-3.84-9.84,0,0-.09-6.49.48-7.44,0,0-5,8.1-12,4.8,0,0,3.92,8.68,4.56,9.12a22.12,22.12,0,0,0,11.28,10.08s10.33,4.7,10.08,10.32a10,10,0,0,1-4.56,6.24s-8.35,2.47-8.64-2.88A18.85,18.85,0,0,1,357,119Z" transform="translate(15.58 40.04)"/><path class="cls-4" d="M343.8,82s5.89-2.25,8.4,1a6.25,6.25,0,0,1-1,7.44s-3.72,3.26-7.92.72c0,0-3.14-1.61-1.68-5.76A8.08,8.08,0,0,1,343.8,82Z" transform="translate(15.58 40.04)"/><path class="cls-2" d="M161.38,8.7a5.73,5.73,0,0,0-1.68-7c-7.36-4.24-10.08,1.92-10.08,1.92-.58,8,6.48,7.68,6.48,7.68A5.69,5.69,0,0,0,161.38,8.7Z" transform="translate(15.58 40.04)"/><path class="cls-2" d="M145.54,17.34a24.86,24.86,0,0,0,.24,12,30.06,30.06,0,0,1,3.6,11.76c-.35,12.33-10.32,6.72-10.32,6.72-6.79-4-2.16-7.44-2.16-7.44.86-1.44,4.8-4.32,4.8-4.32l-5.76-3.6A19,19,0,0,0,124.18,38a9.75,9.75,0,0,0,.24,11.76c1.78,4.71,11.28,9.36,11.28,9.36,10.08,4.41,14.88,0,14.88,0a22.51,22.51,0,0,0,8.16-9.6c3.06-7.68-5.28-18-5.28-18-4-6.56-.48-10.08-.48-10.08,2.44-4.58,7.44-9.12,7.44-9.12-8.4,3.34-12-4.08-12-4.08Z" transform="translate(15.58 40.04)"/><path class="cls-2" d="M211.38-31.3a5.73,5.73,0,0,0-1.68-7c-7.36-4.24-10.08,1.92-10.08,1.92-.58,8,6.48,7.68,6.48,7.68A5.69,5.69,0,0,0,211.38-31.3Z" transform="translate(15.58 40.04)"/><path class="cls-2" d="M195.54-22.66a24.86,24.86,0,0,0,.24,12,30.06,30.06,0,0,1,3.6,11.76c-.35,12.33-10.32,6.72-10.32,6.72-6.79-4-2.16-7.44-2.16-7.44.86-1.44,4.8-4.32,4.8-4.32l-5.76-3.6A19,19,0,0,0,174.18-2a9.75,9.75,0,0,0,.24,11.76c1.78,4.71,11.28,9.36,11.28,9.36,10.08,4.41,14.88,0,14.88,0a22.51,22.51,0,0,0,8.16-9.6c3.06-7.68-5.28-18-5.28-18-4-6.56-.48-10.08-.48-10.08,2.44-4.58,7.44-9.12,7.44-9.12-8.4,3.34-12-4.08-12-4.08Z" transform="translate(15.58 40.04)"/><path class="cls-2" d="M204,267.11s-7.06-.32-6.48,7.68c0,0,2.71,6.16,10.08,1.92a5.26,5.26,0,0,0-3.6-9.6Z" transform="translate(15.58 40.04)"/><path class="cls-2" d="M196.32,270.22s3.59-7.43,12-4.08c0,0-5-4.55-7.44-9.12,0,0-3.51-3.53.48-10.08,0,0,8.33-10.33,5.28-18a22.51,22.51,0,0,0-8.16-9.6s-4.81-4.42-14.88,0c0,0-9.51,4.64-11.28,9.36a9.72,9.72,0,0,0-.24,11.76,19,19,0,0,0,11.8,5.53l5.76-3.6s-4-2.89-4.8-4.32c0,0-4.64-3.43,2.16-7.44,0,0,10-5.62,10.32,6.72a30.28,30.28,0,0,1-3.6,11.76,24.86,24.86,0,0,0-.24,12Z" transform="translate(15.58 40.04)"/><path class="cls-2" d="M64,297.11s-7.06-.32-6.48,7.68c0,0,2.71,6.16,10.08,1.92a5.26,5.26,0,0,0-3.6-9.6Z" transform="translate(15.58 40.04)"/><path class="cls-2" d="M56.32,300.22s3.59-7.43,12-4.08c0,0-5-4.55-7.44-9.12,0,0-3.51-3.53.48-10.08,0,0,8.33-10.33,5.28-18a22.51,22.51,0,0,0-8.16-9.6s-4.81-4.42-14.88,0c0,0-9.51,4.64-11.28,9.36a9.72,9.72,0,0,0-.24,11.76A19,19,0,0,0,43.88,276l5.76-3.6s-4-2.89-4.8-4.32c0,0-4.64-3.43,2.16-7.44,0,0,10-5.62,10.32,6.72a30.28,30.28,0,0,1-3.6,11.76,24.86,24.86,0,0,0-.24,12Z" transform="translate(15.58 40.04)"/><path class="cls-2" d="M112.7,255.24s-5.9,3.89-.73,10c0,0,5.82,3.4,9.29-4.37a5.26,5.26,0,0,0-8.56-5.65Z" transform="translate(15.58 40.04)"/><path class="cls-2" d="M108.32,262.27s-1.47-8.12,7.31-10.35c0,0-6.72-.74-11.38-3,0,0-4.92-.79-5.54-8.43,0,0,.67-13.26-6.31-17.67a22.6,22.6,0,0,0-12.24-3s-6.49-.75-12,8.75c0,0-5,9.34-3.63,14.2a9.72,9.72,0,0,0,6.72,9.65A18.94,18.94,0,0,0,84,250l2.54-6.3s-4.93,0-6.42-.67c0,0-5.77,0-2.63-7.29,0,0,4.79-10.42,12.3-.63a30.17,30.17,0,0,1,4,11.63,24.89,24.89,0,0,0,6.86,9.85Z" transform="translate(15.58 40.04)"/><path class="cls-4" d="M246,219.55l-7.2,1.44S234,227.22,235,233.22c0,0-.17,7.8,13.2,8.4,0,0,11.73-.69,17.28-6.48,0,0,4.62-4.45,2.88-15.6,0,0-1.43-8.14-12.72-10.56,0,0-7.25-1.82-7.68-2.64,0,0-4.17-2.16-3.84-9.84,0,0-.09-6.49.48-7.44,0,0-5,8.1-12,4.8,0,0,3.92,8.68,4.56,9.12a22.12,22.12,0,0,0,11.28,10.08s10.33,4.7,10.08,10.32a10,10,0,0,1-4.56,6.24s-8.35,2.47-8.64-2.88A19,19,0,0,1,246,219.55Z" transform="translate(15.58 40.04)"/><path class="cls-4" d="M232.81,182.59s5.89-2.25,8.4,1a6.25,6.25,0,0,1-1,7.44s-3.72,3.26-7.92.72c0,0-3.14-1.62-1.68-5.76A8.08,8.08,0,0,1,232.81,182.59Z" transform="translate(15.58 40.04)"/><path class="cls-2" d="M287.4,88.48s-1.27,10.84,4.8,10.08c0,0,9.56-1.69,7.92-9.12,0,0-2-5.88-9.84-7,0,0-10.61-2.56-13.2-6,0,0-8.56-9.67-8.4-10.32,0,0,6,.75,7.68-2.16,0,0,2.74-3.51,2.64-4.8a63.32,63.32,0,0,0,1.88,9.16s1.73,7.07,7.44,7.68c0,0,14.14-.24,18,4.32,0,0,7.76,8.32,3.36,19,0,0-4.14,8-16.32,10.56,0,0-8.52,1.78-12.48-2.88,0,0-5.27-6.42-.24-15.12Z" transform="translate(15.58 40.04)"/><path class="cls-2" d="M268,54.64s7-3.62,8.88,2.4a6.16,6.16,0,0,1-4.66,7.37l-.34.07s-6.21,1.2-6.48-4.8C265.32,59.68,265,57.09,268,54.64Z" transform="translate(15.58 40.04)"/><path class="cls-2" d="M302.46,60.68C292.56,59,291,50.78,291,50.78c-1-6,5.81-11.41,5.81-11.41,9.79-7.68,18.58-5.71,18.58-5.71,11,3.49,12.4,14.78,12.4,14.78,1,5.89-8.26,16.57-8.26,16.57-3.2,4.77,1.1,10.63,1.1,10.63A61.31,61.31,0,0,0,326.47,83c-.93-.9-5.38-1.06-5.38-1.06-3.31-.58-6.59,4.49-6.59,4.49-.6-.29-2.5-13.06-2.5-13.06-1-4.2,3.88-14,3.88-14,4.19-6.73,1-12,1-12-4.64-6-12.08.21-12.08.21-4.48,4.16,4.64,10.15,4.64,10.15Z" transform="translate(15.58 40.04)"/><path class="cls-2" d="M317.3,93.09c-4.42-4.07.49-8,.49-8l.27-.22A6.17,6.17,0,0,1,326.7,86c3.41,5.31-3.87,8.35-3.87,8.35C319.05,95,317.28,93.12,317.3,93.09Z" transform="translate(15.58 40.04)"/><path class="cls-2" d="M367.46,230.68c-9.9-1.73-11.43-9.9-11.43-9.9-1-6,5.81-11.41,5.81-11.41,9.79-7.68,18.58-5.71,18.58-5.71,11,3.49,12.4,14.78,12.4,14.78,1,5.89-8.26,16.57-8.26,16.57-3.2,4.77,1.1,10.63,1.1,10.63a61.31,61.31,0,0,0,5.81,7.33c-.93-.9-5.38-1.06-5.38-1.06-3.31-.58-6.59,4.49-6.59,4.49-.6-.29-2.5-13.06-2.5-13.06-1-4.2,3.88-14,3.88-14,4.19-6.73,1-12,1-12-4.64-6-12.08.21-12.08.21-4.48,4.16,4.64,10.15,4.64,10.15Z" transform="translate(15.58 40.04)"/><path class="cls-2" d="M382.3,263.09c-4.42-4.07.49-8,.49-8l.27-.22A6.17,6.17,0,0,1,391.7,256c3.41,5.31-3.87,8.35-3.87,8.35C384.05,265,382.28,263.12,382.3,263.09Z" transform="translate(15.58 40.04)"/><path class="cls-5" d="M231.57,35.64c-8.7,5-15.12-.24-15.12-.24-4.66-4-2.88-12.48-2.88-12.48C216.13,10.74,224.13,6.6,224.13,6.6c10.68-4.4,19,3.36,19,3.36,4.56,3.86,4.32,18,4.32,18,.61,5.71,7.68,7.44,7.68,7.44a62,62,0,0,0,9.16,1.88c-1.29-.1-4.8,2.64-4.8,2.64-2.91,1.68-2.16,7.68-2.16,7.68-.65.16-10.32-8.4-10.32-8.4-3.44-2.59-6-13.2-6-13.2-1.12-7.84-7-9.84-7-9.84-7.43-1.64-9.12,7.92-9.12,7.92-.76,6.07,10.08,4.8,10.08,4.8Z" transform="translate(15.58 40.04)"/><path class="cls-5" d="M263.77,50.92c-6-.27-4.8-6.48-4.8-6.48s0-.22.07-.33a6.17,6.17,0,0,1,7.37-4.67c6,1.88,2.4,8.88,2.4,8.88C266.36,51.28,263.77,51,263.77,50.92Z" transform="translate(15.58 40.04)"/><path class="cls-5" d="M289.62,17.69c5.47,8.42.55,15.11.55,15.11-3.71,4.86-12.31,3.53-12.31,3.53C265.56,34.41,261,26.64,261,26.64c-5-10.44,2.36-19.15,2.36-19.15,3.61-4.76,17.75-5.26,17.75-5.26,5.67-.91,7-8.06,7-8.06a62.66,62.66,0,0,0,1.4-9.24c0,1.29,2.89,4.65,2.89,4.65,1.83,2.82,7.78,1.76,7.78,1.76.2.64-7.85,10.74-7.85,10.74C290,5.65,279.5,8.76,279.5,8.76c-7.78,1.53-9.47,7.51-9.47,7.51-1.24,7.51,8.39,8.69,8.39,8.69,6.1.44,4.27-10.31,4.27-10.31Z" transform="translate(15.58 40.04)"/><path class="cls-5" d="M303.19-15.27c0,6-6.22,5.13-6.22,5.13l-.34,0a6.16,6.16,0,0,1-5-7.12c1.56-6.11,8.74-2.87,8.74-2.87C303.41-17.87,303.23-15.27,303.19-15.27Z" transform="translate(15.58 40.04)"/><path class="cls-6" d="M369.62,57.69c5.47,8.42.55,15.11.55,15.11-3.71,4.86-12.31,3.53-12.31,3.53C345.56,74.41,341,66.64,341,66.64c-5-10.44,2.36-19.15,2.36-19.15,3.61-4.76,17.75-5.26,17.75-5.26,5.67-.91,7-8.06,7-8.06a62.66,62.66,0,0,0,1.4-9.24c0,1.29,2.89,4.65,2.89,4.65,1.83,2.82,7.78,1.76,7.78,1.76.2.64-7.85,10.74-7.85,10.74-2.4,3.57-12.86,6.68-12.86,6.68-7.78,1.53-9.47,7.51-9.47,7.51-1.24,7.51,8.39,8.69,8.39,8.69,6.1.44,4.27-10.31,4.27-10.31Z" transform="translate(15.58 40.04)"/><path class="cls-6" d="M383.19,24.73c0,6-6.22,5.13-6.22,5.13l-.34,0a6.16,6.16,0,0,1-5-7.12c1.56-6.11,8.74-2.87,8.74-2.87C383.41,22.13,383.23,24.73,383.19,24.73Z" transform="translate(15.58 40.04)"/><path class="cls-6" d="M295.06,280.17c1.75,9.89-5.4,14.12-5.4,14.12-5.31,3-12.71-1.56-12.71-1.56-10.57-6.57-11.72-15.5-11.72-15.5-.48-11.54,9.65-16.71,9.65-16.71,5.19-3,18.4,2.1,18.4,2.1,5.57,1.38,9.61-4.67,9.61-4.67a62.64,62.64,0,0,0,4.9-8c-.53,1.18.84,5.41.84,5.41.59,3.31,6.48,4.66,6.48,4.66-.07.67-11.42,6.83-11.42,6.83-3.61,2.34-14.46,1.12-14.46,1.12-7.75-1.63-11.64,3.21-11.64,3.21-4.08,6.42,4.32,11.28,4.32,11.28,5.45,2.79,8-7.83,8-7.83Z" transform="translate(15.58 40.04)"/><path class="cls-6" d="M320.43,255.13c-2.3,5.55-7.73,2.3-7.73,2.3l-.29-.18a6.16,6.16,0,0,1-1.86-8.52c3.82-5,9.16.78,9.16.78C321.66,252.82,320.47,255.15,320.43,255.13Z" transform="translate(15.58 40.04)"/><path class="cls-2" d="M235.32,108.16s-1.41-5.12,5-6.72c0,0,6.51-.46,7,4.08,0,0,1.93,4.89-3.84,7C243.48,112.48,236.4,113.78,235.32,108.16Z" transform="translate(15.58 40.04)"/><path class="cls-2" d="M235.32,102.64s4.25-4.15,8.64-1.92l4.56,2.16s-4.61-10.33-4.08-12.72c0,0-1.72-4.18,5.52-8.64,0,0,10.18-6.11,10.08-13.44,0,0-.18-8.94-3.84-12.24,0,0-3.3-5.4-12.72-5.76,0,0-12.37.66-16.08,5a9.68,9.68,0,0,0-3.12,11.76s3.45,5.34,7.2,8.16l7.92-1.44s-7-8.55-1.44-10.8c0,0,4.47-2.94,9.6,1,0,0,4.86,2.39-1,11.28,0,0-7.9,7.58-8.88,12A53.58,53.58,0,0,0,235.32,102.64Z" transform="translate(15.58 40.04)"/><path class="cls-2" d="M203.88,93s5.13,1.76,7.68.24c0,0,3.83-3.14,4.56-4.8,0,0-.86,10.34.48,12.72,0,0,.27,5,9.36,6.72,0,0,9.64,1.85,12.48,7,0,0,5.83,10.45-1,19.68,0,0-6.06,6-18.24,6.48,0,0-11.92.33-12.48-10.32,0,0,.87-6.5,4.08-10.32L218,119s-3.27,10.14,2.4,10.08c0,0,7.43,2.39,9.84-6,0,0,1.42-3.81-7-8.88,0,0-11.45-6-13.44-10.32C209.88,103.84,205,96.22,203.88,93Z" transform="translate(15.58 40.04)"/><path class="cls-2" d="M206.52,81.28A6.55,6.55,0,0,0,202.44,89s3.25,6.38,10.32,1.2c0,0,2.77-4.17.72-7C213.48,83.22,212.26,80.12,206.52,81.28Z" transform="translate(15.58 40.04)"/><path class="cls-2" d="M232.68,167.68" transform="translate(15.58 40.04)"/></g></svg>